<svg width="14" height="15" viewBox="0 0 14 15" fill="none" xmlns="http://www.w3.org/2000/svg">
<path d="M1.2283 7.88759C1.28442 7.83135 1.3548 7.79145 1.43187 7.77219C1.50895 7.75292 1.58982 7.755 1.6658 7.77821C2.50002 8.03041 3.38703 8.05155 4.23232 7.83939C5.07761 7.62723 5.8495 7.18972 6.46575 6.57347C7.082 5.95722 7.51951 5.18533 7.73167 4.34004C7.94383 3.49475 7.92268 2.60774 7.67049 1.77352C7.64708 1.69751 7.64484 1.61655 7.66401 1.53936C7.68317 1.46217 7.72302 1.39166 7.77926 1.33542C7.8355 1.27918 7.90601 1.23933 7.9832 1.22017C8.06039 1.201 8.14135 1.20324 8.21736 1.22665C9.37071 1.57995 10.3832 2.28802 11.1109 3.25009C11.7472 4.09493 12.1354 5.10048 12.2317 6.15376C12.3281 7.20704 12.1288 8.26632 11.6563 9.2126C11.1838 10.1589 10.4568 10.9547 9.55703 11.5105C8.6572 12.0664 7.6202 12.3604 6.56252 12.3594C5.32858 12.3632 4.12747 11.962 3.14346 11.2175C2.18139 10.4899 1.47332 9.47734 1.12002 8.32399C1.09688 8.24826 1.09474 8.16767 1.11381 8.09081C1.13288 8.01396 1.17245 7.94372 1.2283 7.88759ZM3.66955 10.5186C4.59621 11.2166 5.7438 11.5563 6.90106 11.4753C8.05833 11.3942 9.14738 10.8979 9.96772 10.0776C10.7881 9.25732 11.2845 8.16831 11.3656 7.01105C11.4468 5.85379 11.1071 4.70617 10.4092 3.77946C9.95456 3.17903 9.36675 2.6923 8.69205 2.35759C8.73049 2.62732 8.74986 2.89943 8.75002 3.17188C8.74843 4.67981 8.1487 6.12552 7.08243 7.19179C6.01616 8.25806 4.57045 8.85779 3.06252 8.85938C2.78951 8.8593 2.51686 8.83993 2.24658 8.80141C2.58161 9.47623 3.06872 10.0641 3.66955 10.5186Z" fill="#155DA4"/>
</svg>
