<svg width="13" height="13" viewBox="0 0 13 13" fill="none" xmlns="http://www.w3.org/2000/svg">
<path d="M6.22501 9.597C8.08724 9.597 9.59687 8.08736 9.59687 6.22513C9.59687 4.36291 8.08724 2.85327 6.22501 2.85327C4.36278 2.85327 2.85315 4.36291 2.85315 6.22513C2.85315 8.08736 4.36278 9.597 6.22501 9.597Z" stroke="#155DA4" stroke-linecap="round" stroke-linejoin="round"/>
<path d="M9.92881 9.92869L9.86138 9.86126M9.86138 2.58841L9.92881 2.52097L9.86138 2.58841ZM2.52109 9.92869L2.58853 9.86126L2.52109 9.92869ZM6.22495 1.07885V1.03735V1.07885ZM6.22495 11.4123V11.3708V11.4123ZM1.07898 6.22483H1.03748H1.07898ZM11.4124 6.22483H11.3709H11.4124ZM2.58853 2.58841L2.52109 2.52097L2.58853 2.58841Z" stroke="#155DA4" stroke-linecap="round" stroke-linejoin="round"/>
</svg>
